<svg xmlns="http://www.w3.org/2000/svg" viewBox="0 0 1024 1024">
  <defs>
    <linearGradient id="paper" x1="0" y1="0" x2="0" y2="1">
      <stop offset="0" stop-color="#faf9f7"/>
      <stop offset="1" stop-color="#ece9e4"/>
    </linearGradient>
  </defs>
  <rect x="64" y="64" width="896" height="896" rx="210" fill="url(#paper)"/>
  <path d="M872.4 722.8 Q866.3 735 853.1 753.3 Q839.9 771.6 820.5 791 Q801.2 810.3 778.8 826.6 Q756.4 842.9 722.8 859.2 Q689.2 875.5 653.5 885.7 Q617.9 895.9 581.2 899.9 Q544.6 904 500.8 900.9 Q457 897.9 422.4 888.7 Q387.8 879.6 351.1 861.2 Q314.5 842.9 286 820.5 Q257.5 798.1 235.1 772.7 Q212.7 747.2 191.3 710.5 Q169.9 673.9 156.7 632.1 Q143.4 590.4 140.4 570 Q137.3 549.7 137.3 508.9 Q137.3 468.2 140.4 447.9 Q143.4 427.5 153.6 393.9 Q163.8 360.3 179.1 330.8 Q194.3 301.2 210.6 278.8 Q226.9 256.4 262.5 223.9 Q298.2 191.3 329.7 172.9 Q361.3 154.6 396.9 142.4 Q432.6 130.2 471.3 125.1 Q510 120 560.9 124.1 Q611.8 128.1 654.5 141.4 Q697.3 154.6 727.9 170.9 Q758.4 187.2 773.7 198.4 Q788.9 209.6 810.3 231 Q831.7 252.4 848 279.9 Q864.3 307.3 866.3 333.8 Q868.4 360.3 864.3 371.5 Q860.2 382.7 848 395.9 Q835.8 409.2 799.1 421.4 Q762.5 433.6 741.1 431.6 Q719.7 429.5 704.4 417.3 Q689.2 405.1 681 390.8 Q672.9 376.6 667.8 359.3 Q662.7 342 659.6 317.5 Q656.6 293.1 647.4 278.8 Q638.3 264.6 620.9 257.5 Q603.6 250.3 581.2 246.3 Q558.8 242.2 528.3 242.2 Q497.7 242.2 479.4 245.2 Q461.1 248.3 442.8 254.4 Q424.4 260.5 396.9 275.8 Q369.5 291.1 350.1 308.4 Q330.8 325.7 315.5 346 Q300.2 366.4 289 388.8 Q277.8 411.2 271.7 432.6 Q265.6 454 263.6 467.2 Q261.5 480.4 262.5 517.1 Q263.6 553.7 275.8 593.5 Q288 633.2 308.4 663.7 Q328.7 694.3 354.2 716.7 Q379.6 739.1 414.3 755.3 Q448.9 771.6 474.3 776.7 Q499.8 781.8 530.3 781.8 Q560.9 781.8 587.3 776.7 Q613.8 771.6 634.2 763.5 Q654.5 755.3 660.7 749.2 Q666.8 743.1 670.8 734 Q674.9 724.8 678 695.3 Q681 665.7 688.1 644.4 Q695.3 623 707.5 607.7 Q719.7 592.4 736 585.3 Q752.3 578.2 783.9 582.3 Q815.4 586.3 831.7 592.4 Q848 598.5 859.2 607.7 Q870.4 616.9 876.5 628.1 Q882.6 639.3 884.7 658.6 Q886.7 678 882.6 694.3 Q878.5 710.5 872.4 722.8 Z" transform="translate(102 102) scale(.8)" fill="#181613"/>
</svg>
